# Blender v2.79 (sub 0) OBJ File: ''
# www.blender.org
mtllib cube.mtl
o Cube
v 0.300000 -0.300000 -0.300000
v 0.300000 -0.300000 0.300000
v -0.300000 -0.300000 0.300000
v -0.300000 -0.300000 -0.300000
v 0.223259 0.226019 -0.240844
v 0.220832 0.240513 0.200448
v -0.244536 0.181861 0.255558
v -0.219508 0.254303 -0.226288
v 0.300000 -0.300000 0.000000
v 0.000000 -0.300000 -0.300000
v 0.300000 0.000000 -0.300000
v 0.000000 -0.300000 0.300000
v 0.300000 0.000000 0.300000
v -0.300000 -0.300000 -0.000000
v -0.300000 0.000000 0.300000
v -0.300000 0.000000 -0.300000
v 0.300000 0.300000 0.000000
v 0.000000 0.300000 -0.300000
v -0.000000 0.300000 0.300000
v -0.300000 0.300000 -0.000000
v 0.000000 0.000000 -0.452293
v -0.378578 -0.006845 0.058460
v -0.000000 0.000000 0.409984
v 0.419412 0.000000 0.000000
v -0.000000 0.434633 0.000000
v 0.000000 -0.403166 -0.000000
vn -0.3093 -0.8993 0.3093
vn -0.3789 0.8443 0.3789
vn 0.8444 0.4171 0.3361
vn -0.3264 0.3172 0.8904
vn -0.9175 0.3468 -0.1945
vn -0.4124 -0.4124 -0.8123
vn -0.3663 0.4212 -0.8297
vn 0.3603 0.4223 -0.8318
vn 0.4124 -0.4124 -0.8123
vn -1.0000 -0.0000 -0.0000
vn -0.9659 -0.2589 -0.0000
vn -0.8963 0.3422 0.2819
vn 0.0000 -0.0000 1.0000
vn 0.3076 0.4486 0.8391
vn 1.0000 0.0000 0.0000
vn 0.8590 0.3811 -0.3419
vn 0.3758 0.8374 0.3969
vn 0.3787 0.8439 -0.3799
vn -0.3112 0.8670 -0.3891
vn 0.0000 -1.0000 -0.0000
vn 0.3093 -0.8993 0.3093
vn -0.4532 0.7676 0.4532
vn 0.8387 0.3338 0.4303
vn -0.3193 0.3262 0.8897
vn -0.9179 0.1665 -0.3601
vn 0.0000 0.0000 -1.0000
vn -0.4200 0.3728 -0.8274
vn 0.4221 0.3610 -0.8316
vn -0.9535 -0.2131 -0.2131
vn -0.9509 0.0000 0.3094
vn -0.8974 0.2927 0.3301
vn -0.3255 -0.3255 0.8878
vn 0.3255 -0.3255 0.8878
vn 0.4585 0.3059 0.8344
vn 0.8714 -0.3469 0.3469
vn 0.8714 -0.3469 -0.3469
vn 0.8598 0.3422 -0.3791
vn 0.3953 0.8380 0.3761
vn 0.3800 0.8439 -0.3787
vn -0.3888 0.8664 -0.3133
vn -0.3093 -0.8993 -0.3093
vn 0.3093 -0.8993 -0.3093
usemtl Material
s off
f 12//1 14//1 26//1
f 20//2 19//2 25//2
f 24//3 6//3 13//3
f 23//4 7//4 15//4
f 22//5 8//5 16//5
f 10//6 16//6 21//6
f 21//7 8//7 18//7
f 5//8 21//8 18//8
f 11//9 10//9 21//9
f 14//10 16//10 4//10
f 3//11 22//11 14//11
f 7//12 22//12 15//12
f 12//13 15//13 3//13
f 13//13 12//13 2//13
f 6//14 23//14 13//14
f 9//15 13//15 2//15
f 11//15 9//15 1//15
f 5//16 24//16 11//16
f 25//17 6//17 17//17
f 5//18 25//18 17//18
f 8//19 25//19 18//19
f 10//20 14//20 4//20
f 9//20 10//20 1//20
f 9//21 12//21 26//21
f 12//20 3//20 14//20
f 20//22 7//22 19//22
f 24//23 17//23 6//23
f 23//24 19//24 7//24
f 22//25 20//25 8//25
f 10//26 4//26 16//26
f 21//27 16//27 8//27
f 5//28 11//28 21//28
f 11//26 1//26 10//26
f 14//29 22//29 16//29
f 3//30 15//30 22//30
f 7//31 20//31 22//31
f 12//32 23//32 15//32
f 13//33 23//33 12//33
f 6//34 19//34 23//34
f 9//35 24//35 13//35
f 11//36 24//36 9//36
f 5//37 17//37 24//37
f 25//38 19//38 6//38
f 5//39 18//39 25//39
f 8//40 20//40 25//40
f 10//41 26//41 14//41
f 9//42 26//42 10//42
f 9//20 2//20 12//20
